<svg version="1.1" xmlns="http://www.w3.org/2000/svg" viewBox="-2567.8923699161764 -983.0400268554688 5407.444355847572 2336.768029785156"><desc>Created with Snap</desc><defs><linearGradient x1="-2567.8923699161764" y1="-983.0400268554688" x2="2839.551985931396" y2="-983.0400268554688" gradientUnits="userSpaceOnUse" id="linearGradientSkq202iqszt"><stop offset="0%" stop-color="#6252a2"></stop><stop offset="100%" stop-color="#2fbdb6"></stop></linearGradient></defs><g><rect x="-2567.8923699161764" y="-983.0400268554688" width="5407.444355847572" height="2336.768029785156" fill="url('#linearGradientSkq202iqszt')"></rect><g transform="matrix(19.8626,0,0,19.8626,-2260.6924,-795.0156)"><title>artifact</title><desc>Created with Sketch.</desc><g stroke="none" stroke-width="1" fill="none" fill-rule="evenodd"><g transform="translate(0.000000, 6.000000)" fill="#000000" fill-rule="nonzero"><polygon points="32.7402222 56.7022222 0 0 30.3677778 0 43.2977778 46.2633333" fill="#ffffff" style=""></polygon><polygon points="37.7224444 12.4555556 34.5195556 0 100 0 85.2906667 25.3855556" fill="#ffffff" style=""></polygon><polygon points="46.5005556 42.586 39.5017778 17.2004444 65.0058889 23.8434444" fill="#ffffff" style=""></polygon><polygon points="69.7508889 24.911 35.1126667 60.1423333 50.2965556 86.7141111 83.5112222 28.5883333" fill="#ffffff" style=""></polygon></g></g><defs></defs></g><g><g transform="matrix(1.024,0,0,-1.024,0,0)"><path d="M67 490Q67 466 79 446Q91 427 91 415Q91 404 85 395Q80 386 71 386Q54 386 43 415Q32 444 32 476Q32 524 67 562Q103 600 158 600Q195 600 213 564Q232 529 232 484Q232 439 229 399Q227 360 225 338Q223 317 217 270Q211 224 209 206Q289 206 377 287Q389 431 410 512Q432 594 454 627Q476 660 501 660Q527 660 543 637Q560 614 560 582Q560 464 455 327Q449 248 449 181Q449 115 468 52Q488 -10 488 -18Q488 -25 477 -30Q466 -34 453 -34Q418 -34 396 -16Q385 -7 378 45Q371 97 371 142Q371 188 374 241Q285 165 205 162Q204 148 203 115Q202 83 200 67Q198 52 192 32Q182 -5 144 -5Q121 -5 121 34Q121 74 133 172Q88 191 88 239Q88 274 106 298Q124 323 150 323Q159 415 159 465Q159 555 131 555Q67 555 67 490ZM528 565Q528 580 523 592Q519 605 512 605Q484 605 461 388Q528 490 528 565ZM141 236L147 291Q133 281 133 264Q133 247 141 236ZM863 217Q903 230 918 239Q934 249 942 254L954 261Q959 264 962 264Q970 264 970 255Q970 246 939 223Q908 201 862 183Q855 99 809 47Q763 -5 678 -5Q616 -5 583 44Q550 94 550 160Q550 227 589 286Q629 345 691 345Q719 365 757 365Q796 365 829 324Q862 283 863 217ZM798 166L762 164Q716 164 684 191Q652 219 652 252Q652 285 663 309Q620 275 620 175Q620 127 640 83Q660 40 703 40Q746 40 770 76Q794 113 798 166ZM736 332Q720 332 711 317Q702 303 702 286Q702 249 727 226Q753 203 787 203L799 203Q797 252 782 292Q768 332 736 332ZM1001 261L1056 267Q1064 267 1070 258Q1076 249 1076 239Q1076 229 1069 171Q1063 113 1063 79Q1063 46 1069 46Q1086 47 1116 88Q1146 130 1175 195Q1205 260 1211 260Q1218 260 1218 252Q1218 224 1189 163Q1110 -5 1056 -5Q1017 -5 997 11Q990 18 990 98Q990 178 1007 235Q949 235 926 272Q914 291 914 315Q914 339 924 357Q934 375 952 375Q971 375 986 355Q1002 336 1002 312Q1002 288 988 264Q992 261 1001 261ZM1206 489Q1206 507 1225 520Q1244 533 1259 533Q1286 533 1286 502Q1286 471 1270 448Q1254 426 1225 426Q1206 426 1206 489ZM1235 -5Q1196 -5 1176 11Q1169 18 1169 61Q1169 104 1175 204Q1182 305 1187 313Q1192 321 1218 343Q1244 365 1258 365Q1273 365 1273 327Q1273 317 1267 288Q1262 259 1255 246Q1242 213 1242 73Q1242 46 1248 46Q1265 47 1295 88Q1325 130 1354 195Q1384 260 1390 260Q1397 260 1397 252Q1397 224 1368 163Q1289 -5 1235 -5ZM1513 224Q1392 224 1360 262Q1344 281 1344 305Q1344 329 1358 341Q1373 354 1389 354Q1406 354 1417 340Q1428 327 1428 315Q1428 297 1468 289Q1508 282 1546 282Q1585 337 1601 344Q1607 346 1614 346Q1630 346 1630 314Q1630 282 1616 265Q1602 248 1567 233Q1508 179 1451 108Q1477 102 1530 84Q1583 67 1591 67Q1632 67 1692 200Q1719 260 1725 260Q1732 260 1732 245Q1732 230 1703 163Q1626 -10 1557 -10Q1550 -10 1493 15Q1436 40 1407 40Q1382 3 1359 3Q1344 3 1344 30Q1344 58 1366 85Q1389 113 1415 113Q1485 191 1513 224ZM1997 217Q2037 230 2052 239Q2068 249 2076 254L2088 261Q2093 264 2096 264Q2104 264 2104 255Q2104 246 2073 223Q2042 201 1996 183Q1989 99 1943 47Q1897 -5 1812 -5Q1750 -5 1717 44Q1684 94 1684 160Q1684 227 1723 286Q1763 345 1825 345Q1853 365 1891 365Q1930 365 1963 324Q1996 283 1997 217ZM1932 166L1896 164Q1850 164 1818 191Q1786 219 1786 252Q1786 285 1797 309Q1754 275 1754 175Q1754 127 1774 83Q1794 40 1837 40Q1880 40 1904 76Q1928 113 1932 166ZM1870 332Q1854 332 1845 317Q1836 303 1836 286Q1836 249 1861 226Q1887 203 1921 203L1933 203Q1931 252 1916 292Q1902 332 1870 332ZM2126 54L2127 23Q2127 -5 2111 -5Q2087 -5 2065 1Q2043 8 2043 19Q2043 31 2048 98Q2054 166 2054 200L2054 259Q2054 307 2064 317Q2074 327 2099 346Q2125 365 2136 365Q2148 365 2151 361Q2154 357 2154 346Q2154 293 2134 246Q2129 189 2129 167Q2133 173 2171 235Q2209 297 2235 326Q2262 355 2283 355Q2304 355 2320 341Q2337 327 2337 306Q2337 262 2327 176Q2318 91 2318 68Q2318 46 2324 46Q2341 47 2371 88Q2401 130 2430 195Q2460 260 2466 260Q2473 260 2473 252Q2473 224 2444 163Q2365 -5 2311 -5Q2272 -5 2252 11Q2245 18 2245 47Q2245 77 2250 143Q2256 210 2256 243Q2256 276 2244 276Q2233 276 2184 207Q2135 139 2132 120Q2126 85 2126 54Z" fill="#ffffff" style=""></path></g></g><g transform="matrix(1,0,0,1,32.768,976.896)"><g transform="matrix(1.024,0,0,-1.024,0,0)"><path d="M255 26Q309 26 350 64Q392 102 392 151Q392 201 361 243Q327 226 294 226Q217 226 217 274Q217 288 236 299Q255 311 290 311Q326 311 368 290Q408 333 408 387Q408 454 349 493Q291 533 224 533Q210 533 203 532Q202 503 198 439Q192 343 192 146Q192 70 181 70Q138 70 126 82Q114 94 114 151Q114 165 119 266Q125 367 125 429Q125 491 129 520Q76 502 72 462Q68 429 57 416Q47 403 29 403Q12 403 6 412Q0 422 0 432Q0 519 135 552Q152 620 189 620Q204 620 204 564Q230 567 268 567Q307 567 357 552Q407 538 444 501Q481 465 481 420Q481 336 400 269Q456 225 456 164Q456 103 418 63Q347 -10 228 -10Q147 -10 112 1Q105 3 97 11Q90 20 90 33Q90 54 131 54Q144 54 188 40Q232 26 255 26ZM340 265Q310 290 283 290Q257 290 257 279Q257 256 306 256Q324 256 340 265ZM787 -5Q748 -5 728 11Q721 18 721 46Q721 75 723 123Q697 58 671 26Q646 -5 606 -5Q566 -5 536 32Q506 70 506 150Q506 231 551 293Q597 355 671 355Q703 355 743 313Q751 324 771 339Q792 355 806 355Q821 355 821 317Q821 307 815 278Q810 249 803 236Q794 213 794 73Q794 46 800 46Q817 47 847 88Q877 130 906 195Q936 260 942 260Q949 260 949 252Q949 224 920 163Q841 -5 787 -5ZM665 315Q637 315 605 273Q574 232 574 176Q574 120 590 84Q607 48 634 48Q667 48 731 213Q732 221 733 240Q735 260 736 270Q727 286 704 300Q682 315 665 315ZM967 54L968 23Q968 -5 952 -5Q928 -5 906 1Q884 8 884 19Q884 31 889 98Q895 166 895 200L895 259Q895 307 905 317Q915 327 940 346Q966 365 977 365Q989 365 992 361Q995 357 995 346Q995 293 975 246Q970 189 970 167Q974 173 1012 235Q1050 297 1076 326Q1103 355 1124 355Q1145 355 1161 341Q1178 327 1178 306Q1178 262 1168 176Q1159 91 1159 68Q1159 46 1165 46Q1182 47 1212 88Q1242 130 1271 195Q1301 260 1307 260Q1314 260 1314 252Q1314 224 1285 163Q1206 -5 1152 -5Q1113 -5 1093 11Q1086 18 1086 47Q1086 77 1091 143Q1097 210 1097 243Q1097 276 1085 276Q1074 276 1025 207Q976 139 973 120Q967 85 967 54ZM1582 -35L1609 -32Q1617 -32 1617 -40Q1617 -54 1598 -61Q1579 -68 1555 -68Q1510 -68 1479 -32Q1449 4 1395 101Q1382 122 1382 133Q1382 148 1424 168Q1492 203 1492 256Q1492 271 1481 281Q1471 292 1454 292Q1430 292 1397 235Q1364 179 1352 129Q1341 80 1341 23Q1341 -5 1325 -5Q1302 -5 1281 1Q1260 8 1260 18Q1260 29 1268 113Q1276 198 1277 235Q1281 439 1301 547Q1304 556 1328 578Q1353 600 1368 600Q1383 600 1382 562Q1382 525 1366 402Q1350 279 1346 177Q1364 241 1403 298Q1443 355 1483 355Q1551 355 1551 289Q1551 245 1525 209Q1499 174 1455 152Q1446 148 1446 143Q1446 138 1449 133Q1512 22 1556 -23Q1568 -35 1582 -35Z" fill="#ffffff" style=""></path></g></g></g></svg>